<?xml version="1.0" encoding="UTF-8" standalone="no"?>
<!-- Created with Inkscape (http://www.inkscape.org/) -->

<svg
   xmlns:dc="http://purl.org/dc/elements/1.1/"
   xmlns:cc="http://creativecommons.org/ns#"
   xmlns:rdf="http://www.w3.org/1999/02/22-rdf-syntax-ns#"
   xmlns:svg="http://www.w3.org/2000/svg"
   xmlns="http://www.w3.org/2000/svg"
   xmlns:sodipodi="http://sodipodi.sourceforge.net/DTD/sodipodi-0.dtd"
   xmlns:inkscape="http://www.inkscape.org/namespaces/inkscape"
   width="1327.9186"
   height="783.3205"
   viewBox="0 0 351.34512 207.25356"
   version="1.1"
   id="svg8"
   inkscape:version="0.92.3 (2405546, 2018-03-11)"
   sodipodi:docname="title.svg">
  <defs
     id="defs2" />
  <sodipodi:namedview
     id="base"
     pagecolor="#ffffff"
     bordercolor="#666666"
     borderopacity="1.0"
     inkscape:pageopacity="0.0"
     inkscape:pageshadow="2"
     inkscape:zoom="0.35"
     inkscape:cx="-85.217883"
     inkscape:cy="376.55968"
     inkscape:document-units="px"
     inkscape:current-layer="layer1"
     showgrid="false"
     units="px"
     inkscape:window-width="1850"
     inkscape:window-height="1016"
     inkscape:window-x="70"
     inkscape:window-y="27"
     inkscape:window-maximized="1"
     inkscape:measure-start="0,0"
     inkscape:measure-end="0,0"
     fit-margin-top="0"
     fit-margin-left="0"
     fit-margin-right="0"
     fit-margin-bottom="0" />
  <metadata
     id="metadata5">
    <rdf:RDF>
      <cc:Work
         rdf:about="">
        <dc:format>image/svg+xml</dc:format>
        <dc:type
           rdf:resource="http://purl.org/dc/dcmitype/StillImage" />
        <dc:title></dc:title>
      </cc:Work>
    </rdf:RDF>
  </metadata>
  <g
     inkscape:label="Layer 1"
     inkscape:groupmode="layer"
     id="layer1"
     transform="translate(-78.109732,-45.746895)">
    <g
       id="g863"
       inkscape:export-xdpi="87.724098"
       inkscape:export-ydpi="87.724098"
       style="fill:#000000;fill-opacity:1">
      <g
         id="flowRoot822"
         style="font-style:normal;font-variant:normal;font-weight:900;font-stretch:normal;font-size:40px;line-height:1.25;font-family:Roboto;-inkscape-font-specification:'Roboto, Heavy';font-variant-ligatures:normal;font-variant-position:normal;font-variant-caps:normal;font-variant-numeric:normal;font-variant-alternates:normal;font-feature-settings:normal;text-indent:0;text-align:center;text-decoration:none;text-decoration-line:none;text-decoration-style:solid;text-decoration-color:#000000;letter-spacing:0px;word-spacing:0px;text-transform:none;writing-mode:lr-tb;direction:ltr;text-orientation:mixed;dominant-baseline:auto;baseline-shift:baseline;text-anchor:middle;white-space:normal;shape-padding:0;opacity:1;vector-effect:none;fill:#000000;fill-opacity:1;stroke:none;stroke-width:0.99999994;stroke-linecap:butt;stroke-linejoin:miter;stroke-miterlimit:4;stroke-dasharray:none;stroke-dashoffset:0;stroke-opacity:1"
         transform="matrix(2.629183,0,0,2.629183,-2147.8788,-637.23876)"
         aria-label="Natac
Electric">
        <path
           id="path822"
           style="fill:#000000;fill-opacity:1"
           d="m 886.17773,288.20856 h -6.8164 L 869.2832,270.51324 v 17.69532 h -6.85547 v -28.4375 h 6.85547 l 10.0586,17.69531 v -17.69531 h 6.83593 z"
           inkscape:connector-curvature="0" />
        <path
           id="path824"
           style="fill:#000000;fill-opacity:1"
           d="m 902.1543,288.20856 q -0.35157,-0.64453 -0.625,-1.89453 -1.81641,2.28515 -5.07813,2.28515 -2.98828,0 -5.07812,-1.79687 -2.08985,-1.81641 -2.08985,-4.55078 0,-3.4375 2.53907,-5.19532 2.53906,-1.75781 7.38281,-1.75781 h 2.03125 v -1.11328 q 0,-2.91016 -2.51953,-2.91016 -2.34375,0 -2.34375,2.30469 h -6.58203 q 0,-3.06641 2.59765,-4.98047 2.61719,-1.91406 6.66016,-1.91406 4.04297,0 6.38672,1.97266 2.34375,1.97265 2.40234,5.41015 v 9.35547 q 0.0391,2.91016 0.89844,4.45313 v 0.33203 z m -4.1211,-4.29688 q 1.23047,0 2.03125,-0.52734 0.82032,-0.52735 1.17188,-1.19141 v -3.3789 h -1.91406 q -3.4375,0 -3.4375,3.08593 0,0.89844 0.60546,1.46485 0.60547,0.54687 1.54297,0.54687 z"
           inkscape:connector-curvature="0" />
        <path
           id="path826"
           style="fill:#000000;fill-opacity:1"
           d="m 919.16602,261.82184 v 5.2539 h 3.47656 v 4.57032 h -3.47656 v 9.66797 q 0,1.1914 0.42968,1.66015 0.42969,0.46875 1.69922,0.46875 0.97656,0 1.64063,-0.11719 v 4.70704 q -1.77735,0.5664 -3.71094,0.5664 -3.39844,0 -5.01953,-1.60156 -1.6211,-1.60156 -1.6211,-4.86328 v -10.48828 h -2.69531 v -4.57032 h 2.69531 v -5.2539 z"
           inkscape:connector-curvature="0" />
        <path
           id="path828"
           style="fill:#000000;fill-opacity:1"
           d="m 937.1543,288.20856 q -0.35157,-0.64453 -0.625,-1.89453 -1.81641,2.28515 -5.07813,2.28515 -2.98828,0 -5.07812,-1.79687 -2.08985,-1.81641 -2.08985,-4.55078 0,-3.4375 2.53907,-5.19532 2.53906,-1.75781 7.38281,-1.75781 h 2.03125 v -1.11328 q 0,-2.91016 -2.51953,-2.91016 -2.34375,0 -2.34375,2.30469 h -6.58203 q 0,-3.06641 2.59765,-4.98047 2.61719,-1.91406 6.66016,-1.91406 4.04297,0 6.38672,1.97266 2.34375,1.97265 2.40234,5.41015 v 9.35547 q 0.0391,2.91016 0.89844,4.45313 v 0.33203 z m -4.1211,-4.29688 q 1.23047,0 2.03125,-0.52734 0.82032,-0.52735 1.17188,-1.19141 v -3.3789 h -1.91406 q -3.4375,0 -3.4375,3.08593 0,0.89844 0.60546,1.46485 0.60547,0.54687 1.54297,0.54687 z"
           inkscape:connector-curvature="0" />
        <path
           id="path830"
           style="fill:#000000;fill-opacity:1"
           d="m 955.43555,283.52106 q 1.38672,0 2.14843,-0.74219 0.76172,-0.76172 0.74219,-2.10938 h 6.17188 q 0,3.47657 -2.5,5.70313 -2.48047,2.22656 -6.40625,2.22656 -4.60938,0 -7.26563,-2.89062 -2.65625,-2.89063 -2.65625,-8.00782 v -0.27343 q 0,-3.20313 1.17188,-5.64453 1.1914,-2.46094 3.41797,-3.76954 2.22656,-1.32812 5.27343,-1.32812 4.1211,0 6.54297,2.28516 2.42188,2.28515 2.42188,6.1914 h -6.17188 q 0,-1.64062 -0.80078,-2.51953 -0.80078,-0.87891 -2.14844,-0.87891 -2.55859,0 -2.98828,3.26172 -0.13672,1.03516 -0.13672,2.85157 0,3.18359 0.76172,4.41406 0.76172,1.23047 2.42188,1.23047 z"
           inkscape:connector-curvature="0" />
        <path
           id="path832"
           style="fill:#000000;fill-opacity:1"
           d="m 864.2832,326.15778 h -10.78125 v 6.77734 h 12.73438 v 5.27344 h -19.58985 v -28.4375 h 19.62891 v 5.29297 h -12.77344 v 5.99609 h 10.78125 z"
           inkscape:connector-curvature="0" />
        <path
           id="path834"
           style="fill:#000000;fill-opacity:1"
           d="m 875.70898,338.20856 h -6.60156 v -30 h 6.60156 z"
           inkscape:connector-curvature="0" />
        <path
           id="path836"
           style="fill:#000000;fill-opacity:1"
           d="m 890.00586,338.59918 q -4.86328,0 -7.87109,-2.89062 -3.00782,-2.91016 -3.00782,-7.5586 v -0.54687 q 0,-3.24219 1.19141,-5.72266 1.21094,-2.48047 3.51562,-3.82812 2.30469,-1.36719 5.46875,-1.36719 4.45313,0 7.03125,2.77344 2.57813,2.7539 2.57813,7.69531 v 2.55859 h -13.08594 q 0.35156,1.77735 1.54297,2.79297 1.19141,1.01563 3.08594,1.01563 3.125,0 4.88281,-2.1875 l 3.00781,3.55468 q -1.23047,1.69922 -3.49609,2.71485 -2.24609,0.99609 -4.84375,0.99609 z m -0.74219,-16.83594 q -2.89062,0 -3.4375,3.82813 h 6.64063 v -0.50781 q 0.0391,-1.58203 -0.80078,-2.44141 -0.83985,-0.87891 -2.40235,-0.87891 z"
           inkscape:connector-curvature="0" />
        <path
           id="path838"
           style="fill:#000000;fill-opacity:1"
           d="m 910.51367,333.52106 q 1.38672,0 2.14844,-0.74219 0.76172,-0.76172 0.74219,-2.10938 h 6.17187 q 0,3.47657 -2.5,5.70313 -2.48047,2.22656 -6.40625,2.22656 -4.60937,0 -7.26562,-2.89062 -2.65625,-2.89063 -2.65625,-8.00782 v -0.27343 q 0,-3.20313 1.17187,-5.64453 1.19141,-2.46094 3.41797,-3.76954 2.22656,-1.32812 5.27344,-1.32812 4.12109,0 6.54297,2.28516 2.42187,2.28515 2.42187,6.1914 h -6.17187 q 0,-1.64062 -0.80078,-2.51953 -0.80079,-0.87891 -2.14844,-0.87891 -2.5586,0 -2.98828,3.26172 -0.13672,1.03516 -0.13672,2.85157 0,3.18359 0.76172,4.41406 0.76172,1.23047 2.42187,1.23047 z"
           inkscape:connector-curvature="0" />
        <path
           id="path840"
           style="fill:#000000;fill-opacity:1"
           d="m 930.02539,311.82184 v 5.2539 h 3.47656 v 4.57032 h -3.47656 v 9.66797 q 0,1.1914 0.42969,1.66015 0.42969,0.46875 1.69922,0.46875 0.97656,0 1.64062,-0.11719 v 4.70704 q -1.77734,0.5664 -3.71094,0.5664 -3.39843,0 -5.01953,-1.60156 -1.62109,-1.60156 -1.62109,-4.86328 v -10.48828 h -2.69531 v -4.57032 h 2.69531 v -5.2539 z"
           inkscape:connector-curvature="0" />
        <path
           id="path842"
           style="fill:#000000;fill-opacity:1"
           d="m 948.89258,323.03278 -2.16797,-0.15625 q -3.10547,0 -3.98438,1.95312 v 13.37891 h -6.58203 v -21.13282 h 6.17188 l 0.21484,2.71485 q 1.66016,-3.10547 4.62891,-3.10547 1.05469,0 1.83594,0.23437 z"
           inkscape:connector-curvature="0" />
        <path
           id="path844"
           style="fill:#000000;fill-opacity:1"
           d="m 958.20898,338.20856 h -6.60156 v -21.13282 h 6.60156 z m -6.99218,-26.58203 q 0,-1.40625 1.01562,-2.30469 1.01563,-0.89844 2.63672,-0.89844 1.62109,0 2.63672,0.89844 1.01562,0.89844 1.01562,2.30469 0,1.40625 -1.01562,2.30468 -1.01563,0.89844 -2.63672,0.89844 -1.62109,0 -2.63672,-0.89844 -1.01562,-0.89843 -1.01562,-2.30468 z"
           inkscape:connector-curvature="0" />
        <path
           id="path846"
           style="fill:#000000;fill-opacity:1"
           d="m 971.2168,333.52106 q 1.38672,0 2.14843,-0.74219 0.76172,-0.76172 0.74219,-2.10938 h 6.17188 q 0,3.47657 -2.5,5.70313 -2.48047,2.22656 -6.40625,2.22656 -4.60938,0 -7.26563,-2.89062 -2.65625,-2.89063 -2.65625,-8.00782 v -0.27343 q 0,-3.20313 1.17188,-5.64453 1.1914,-2.46094 3.41797,-3.76954 2.22656,-1.32812 5.27343,-1.32812 4.1211,0 6.54297,2.28516 2.42188,2.28515 2.42188,6.1914 h -6.17188 q 0,-1.64062 -0.80078,-2.51953 -0.80078,-0.87891 -2.14844,-0.87891 -2.55859,0 -2.98828,3.26172 -0.13672,1.03516 -0.13672,2.85157 0,3.18359 0.76172,4.41406 0.76172,1.23047 2.42188,1.23047 z"
           inkscape:connector-curvature="0" />
      </g>
    </g>
  </g>
</svg>
